# xmcd
#
# Track frame offsets:
#	150
#	17714
#	30116
#	56542
#	74116
#	90261
#	108452
#	124120
#	142694
#	159843
#	177466
#	193065
#	211330
#	226622
#	243930
#	260315
#	275809
#	289236
#	304648
#	320672
#
# Disc length: 4431 seconds
#
# Revision: 1
# Processed by: cddbd v1.5.2PL0 Copyright (c) Steve Scherf et al.
# Submitted via: EasyCDDAExtractor 2010.6.0.0
#
DISCID=12114d14
DTITLE=Various Artist - Langarm-Sokkie Dansklub Treffers Vol 2
DYEAR=1998
DGENRE=Dance
TTITLE0=Lovin and Devotion - Lovin and Devotion
TTITLE1=Bellamy Brothers - Let Your Love Flow
TTITLE2=SASH - Eduador
TTITLE3=DJ Pete - Bellissima
TTITLE4=Don Kelly - Because It's Love
TTITLE5=Smokie - Lay Back In The Arms Of Someone
TTITLE6=Ace Of Base - All That She Wants
TTITLE7=Heart Attack - Eye Of A Tiger
TTITLE8=David Hasselhof - Highway To Your Heart
TTITLE9=BZN - Aloha He
TTITLE10=Pussycat - Teenage Queenie
TTITLE11=Laura Banigan - Spanish Eddy
TTITLE12=Abba - Medley
TTITLE13=Deon Roberts - Turn It Into Love
TTITLE14=Joe Dolan - It's You, It's You, It's You
TTITLE15=Tony Christie - One Dance With You
TTITLE16=Sugar and Spice - It Takes Two
TTITLE17=George Baker - Alone
TTITLE18=Touch Of Class - Head Over Heels
TTITLE19=Klipwerf Boereorkes - Umfaan
EXTD=YEAR: 1998
EXTT0=
EXTT1=
EXTT2=
EXTT3=
EXTT4=
EXTT5=
EXTT6=
EXTT7=
EXTT8=
EXTT9=
EXTT10=
EXTT11=
EXTT12=
EXTT13=
EXTT14=
EXTT15=
EXTT16=
EXTT17=
EXTT18=
EXTT19=
PLAYORDER=
